<?xml version="1.0" standalone="no"?>
<!DOCTYPE svg PUBLIC "-//W3C//DTD SVG 20010904//EN"
 "http://www.w3.org/TR/2001/REC-SVG-20010904/DTD/svg10.dtd">
<svg version="1.0" xmlns="http://www.w3.org/2000/svg"
 width="720.000000pt" height="720.000000pt" viewBox="0 0 720.000000 720.000000"
 preserveAspectRatio="xMidYMid meet">

<g transform="translate(0.000000,720.000000) scale(0.100000,-0.100000)"
fill="#000000" stroke="none">
<path d="M0 3600 l0 -3600 3600 0 3600 0 0 3600 0 3600 -3600 0 -3600 0 0
-3600z m3664 3509 c14 -17 26 -40 26 -52 0 -32 42 -56 250 -141 102 -42 313
-129 470 -195 l285 -118 20 22 c45 51 98 58 144 19 27 -22 31 -32 31 -74 l0
-48 163 -67 c89 -36 313 -129 497 -205 184 -76 351 -142 371 -145 26 -5 39 -2
48 9 15 18 82 22 112 6 22 -12 49 -60 49 -88 0 -11 -12 -36 -26 -57 l-26 -38
21 -54 c11 -29 102 -251 202 -492 l182 -438 43 5 c38 4 47 1 74 -26 43 -43 42
-92 -4 -138 l-34 -34 207 -497 c114 -274 216 -513 227 -530 13 -22 27 -33 42
-33 13 0 37 -13 53 -29 50 -50 35 -122 -32 -157 -17 -8 -39 -12 -49 -9 -13 4
-22 -1 -31 -17 -7 -13 -99 -232 -205 -487 l-192 -465 34 -31 c54 -51 46 -128
-17 -160 -16 -9 -45 -14 -65 -13 l-35 3 -120 -290 c-66 -159 -161 -387 -210
-506 -84 -205 -102 -270 -79 -284 13 -8 13 -81 -1 -107 -17 -32 -74 -51 -115
-38 -19 6 -34 16 -34 21 0 5 -11 9 -23 9 -19 0 -402 -154 -802 -322 -38 -16
-94 -39 -122 -50 -46 -18 -53 -24 -53 -49 0 -43 -20 -77 -55 -93 -39 -19 -86
-12 -111 15 -9 11 -23 19 -29 19 -12 0 -256 -98 -360 -144 -27 -13 -180 -76
-340 -141 -159 -65 -302 -127 -317 -138 -16 -10 -28 -27 -28 -37 0 -58 -63
-107 -120 -95 -36 8 -67 45 -75 89 -8 39 -15 44 -163 105 -843 350 -826 344
-837 325 -23 -41 -58 -64 -97 -64 -67 0 -112 65 -89 130 9 28 8 32 -12 39 -36
14 -638 263 -821 340 -171 72 -223 84 -246 56 -8 -9 -30 -15 -57 -15 -35 0
-49 6 -68 26 -31 34 -34 95 -6 130 14 18 17 32 11 57 -4 17 -90 230 -190 472
-101 242 -188 452 -193 467 -9 23 -16 27 -49 25 -73 -3 -125 67 -98 133 7 17
21 35 31 41 11 5 19 15 19 23 0 17 -373 918 -408 986 -25 49 -33 56 -67 61
-51 8 -75 39 -75 96 0 52 35 93 81 93 19 0 34 8 45 25 14 22 110 249 330 783
l76 182 -31 29 c-37 35 -47 72 -31 112 18 43 51 61 101 58 l42 -3 207 500
c114 276 210 517 214 536 4 23 1 45 -10 66 -21 42 -11 85 28 117 36 30 72 32
116 5 18 -11 39 -20 46 -20 12 0 368 145 816 332 52 22 108 44 123 50 24 9 28
15 24 37 -7 33 15 86 41 100 39 21 91 13 123 -18 l29 -29 142 60 c79 32 285
118 458 189 461 191 427 173 434 221 9 57 44 88 100 88 37 0 48 -5 70 -31z"/>
<path d="M3477 6983 c-15 -8 -48 -42 -73 -76 -47 -63 -138 -239 -150 -289 l-6
-28 125 0 125 0 35 35 c27 27 43 35 72 35 30 0 44 -7 71 -35 l33 -35 126 0
c148 0 140 -14 70 137 -66 140 -142 244 -193 264 -19 7 -30 4 -54 -16 -39 -33
-87 -33 -125 -1 -26 22 -30 23 -56 9z"/>
<path d="M3280 6904 c-69 -28 -266 -110 -437 -181 -172 -70 -313 -131 -313
-135 0 -10 133 -10 449 -1 l243 6 11 26 c40 97 101 218 137 270 23 35 40 64
38 65 -1 2 -59 -21 -128 -50z"/>
<path d="M3790 6955 c0 -3 15 -24 33 -48 36 -47 102 -171 138 -260 l23 -59
326 7 c179 4 326 8 327 10 3 2 -95 44 -372 158 -360 150 -475 196 -475 192z"/>
<path d="M4035 6570 c11 -4 83 -20 160 -35 217 -42 413 -106 652 -212 l102
-45 20 -62 c11 -33 43 -135 71 -226 29 -91 54 -167 56 -169 4 -4 77 33 100 51
8 6 -1 49 -32 151 -24 78 -44 145 -44 150 0 10 41 -12 130 -72 41 -27 77 -48
79 -45 3 3 -98 105 -224 228 l-230 223 -32 -20 c-23 -13 -42 -17 -62 -12 -35
7 -81 57 -81 86 0 18 -11 19 -342 18 -192 0 -334 -4 -323 -9z"/>
<path d="M2467 6563 c-4 -3 -7 -17 -7 -30 0 -14 -13 -38 -29 -54 -36 -36 -95
-40 -128 -9 l-22 20 -210 -217 c-115 -119 -208 -220 -205 -225 3 -5 30 9 60
30 l54 39 253 -58 c138 -32 266 -58 284 -59 54 0 80 57 46 99 -14 17 -59 30
-208 63 -104 23 -194 45 -199 49 -13 11 226 128 394 192 153 59 314 105 495
142 l110 23 -341 1 c-187 1 -344 -2 -347 -6z"/>
<path d="M3485 6560 c3 -5 8 -10 11 -10 2 0 4 5 4 10 0 6 -5 10 -11 10 -5 0
-7 -4 -4 -10z"/>
<path d="M3684 6505 c-6 -25 5 -39 113 -147 70 -70 125 -118 132 -114 6 4 11
20 11 36 0 23 -20 47 -116 137 -63 59 -119 109 -124 111 -5 2 -12 -9 -16 -23z"/>
<path d="M4930 6486 c0 -1 95 -97 211 -213 203 -202 213 -210 239 -200 34 13
77 2 103 -27 l20 -23 51 20 c28 11 101 32 161 47 96 24 107 29 85 38 -56 22
-663 273 -762 315 -60 25 -108 45 -108 43z"/>
<path d="M3624 6469 l-32 -9 67 -63 c175 -165 190 -177 215 -177 14 0 26 3 26
8 0 4 -55 62 -122 128 -119 118 -124 121 -154 113z"/>
<path d="M1915 6338 c-170 -71 -355 -147 -410 -170 -55 -22 -104 -44 -109 -49
-5 -4 9 -11 30 -14 54 -9 178 -43 218 -60 32 -14 34 -13 54 15 28 37 84 50
123 28 l27 -16 193 194 c106 106 191 195 189 197 -3 2 -144 -54 -315 -125z"/>
<path d="M1300 6055 c0 -29 -7 -44 -35 -72 -31 -31 -40 -35 -70 -30 -45 7 -55
-10 -55 -93 0 -69 17 -148 56 -257 l26 -72 41 -3 42 -3 198 199 199 199 -15
46 -14 46 -99 34 c-70 23 -124 35 -186 38 l-88 6 0 -38z"/>
<path d="M5705 6071 c-38 -10 -97 -28 -130 -39 -32 -12 -60 -22 -61 -22 -1 0
-5 -20 -9 -45 l-6 -45 58 -52 c32 -28 121 -116 199 -195 l140 -144 47 13 c44
11 48 16 66 64 43 113 67 243 57 299 -6 32 -10 35 -41 35 -51 0 -86 35 -92 92
-4 36 -10 48 -27 52 -39 11 -131 5 -201 -13z"/>
<path d="M5165 5834 c-22 -14 -46 -28 -54 -33 -20 -12 12 -69 44 -77 39 -10
75 19 75 59 0 38 -10 77 -19 76 -3 0 -24 -12 -46 -25z"/>
<path d="M932 5412 c-101 -244 -182 -445 -180 -448 3 -2 97 89 209 204 l205
207 -4 49 c-3 38 0 54 18 78 l21 29 -30 92 c-17 51 -37 124 -44 162 l-12 70
-183 -443z"/>
<path d="M6076 5783 c-4 -31 -20 -98 -37 -149 l-31 -93 27 -32 c27 -32 30 -67
11 -110 -5 -12 43 -65 190 -208 108 -105 199 -190 201 -188 6 6 -339 837 -347
837 -4 0 -10 -25 -14 -57z"/>
<path d="M3360 5505 c-107 -15 -201 -36 -307 -66 -77 -23 -83 -30 -83 -101 0
-28 5 -40 21 -48 11 -7 27 -27 35 -45 l14 -34 54 19 c30 10 101 28 156 40 303
62 549 50 885 -45 16 -5 23 1 32 25 8 20 23 35 42 43 30 11 31 13 25 62 -4 27
-13 55 -20 61 -18 14 -185 59 -299 80 -123 22 -430 27 -555 9z"/>
<path d="M2878 5377 c-43 -18 -78 -34 -78 -37 1 -14 74 -59 84 -51 6 4 23 11
37 14 22 6 27 14 33 53 3 26 5 48 4 50 -2 1 -38 -12 -80 -29z"/>
<path d="M4250 5377 c0 -47 10 -77 26 -77 8 0 23 -5 33 -12 15 -9 25 -6 55 17
20 15 36 31 36 35 0 4 -34 21 -75 38 l-75 31 0 -32z"/>
<path d="M950 5135 l-233 -234 18 -34 c32 -61 -6 -147 -66 -147 -18 0 -19 -15
-18 -352 1 -194 3 -344 6 -333 2 11 15 80 29 153 44 233 117 461 216 674 l50
107 114 35 c63 20 166 52 229 72 63 20 115 40 115 45 0 5 -7 21 -15 34 -8 14
-22 36 -30 49 l-14 24 -141 -44 c-78 -25 -146 -44 -152 -42 -5 2 22 52 62 112
39 59 69 110 68 112 -2 2 -109 -102 -238 -231z"/>
<path d="M6020 5365 c0 -3 16 -29 35 -58 19 -28 35 -60 35 -71 0 -10 -26 -134
-57 -273 -53 -236 -56 -257 -42 -281 19 -35 67 -41 93 -13 11 12 34 92 61 211
23 105 45 193 48 196 8 8 70 -110 131 -248 91 -207 162 -434 207 -668 l19 -95
-5 240 c-3 132 -5 288 -5 347 l0 106 -35 12 c-19 6 -42 21 -50 33 -18 26 -20
90 -3 117 12 18 -6 39 -202 235 -194 194 -230 227 -230 210z"/>
<path d="M2700 5294 c-214 -119 -418 -289 -561 -467 -93 -115 -174 -235 -214
-318 l-28 -57 33 -45 c31 -43 36 -46 77 -45 24 0 49 -4 55 -10 8 -8 24 11 57
71 163 289 380 510 648 660 80 45 91 55 85 72 -4 11 -7 44 -7 73 0 46 -4 55
-30 77 -16 13 -34 24 -40 25 -5 0 -39 -16 -75 -36z"/>
<path d="M4382 5298 c-39 -30 -41 -34 -35 -73 3 -23 1 -51 -5 -62 -10 -17 -3
-23 61 -58 267 -142 527 -400 677 -670 18 -33 34 -61 36 -63 1 -2 17 4 34 13
31 16 55 16 91 1 11 -5 24 5 43 33 l28 40 -47 83 c-162 282 -358 494 -615 665
-85 56 -202 123 -217 123 -5 0 -28 -14 -51 -32z"/>
<path d="M1388 5239 c-16 -9 -14 -14 13 -62 17 -28 32 -53 34 -55 1 -1 14 2
29 8 47 17 54 84 12 112 -16 11 -68 9 -88 -3z"/>
<path d="M3470 5055 c-8 -2 -63 -11 -121 -20 -111 -18 -143 -29 -123 -42 6 -5
73 -62 149 -128 80 -69 145 -119 154 -117 63 14 103 13 121 -3 16 -15 21 -15
37 -3 49 35 302 262 298 266 -3 3 -47 14 -97 24 -84 17 -376 33 -418 23z"/>
<path d="M3079 4961 c-162 -66 -155 -60 -162 -135 -14 -147 -30 -456 -24 -462
3 -4 71 -3 151 1 l144 7 13 30 c17 41 51 61 96 56 21 -3 45 -8 53 -11 10 -4
42 19 94 68 l79 73 -17 37 c-14 28 -15 43 -7 66 9 26 7 32 -17 55 -64 61 -291
254 -299 254 -4 0 -51 -18 -104 -39z"/>
<path d="M3962 4955 c-30 -25 -103 -88 -163 -141 -104 -92 -109 -97 -109 -136
0 -21 -4 -48 -10 -58 -8 -15 4 -30 70 -94 77 -73 102 -87 115 -66 3 6 24 10
46 10 31 0 47 -7 70 -29 16 -16 29 -38 29 -49 0 -17 10 -20 107 -25 58 -4 128
-7 155 -7 l49 0 -5 68 c-3 37 -11 141 -16 232 -16 250 -9 230 -93 268 -55 24
-185 73 -191 72 -1 0 -25 -20 -54 -45z"/>
<path d="M4303 4846 c3 -20 11 -127 17 -239 6 -111 14 -212 16 -224 5 -25 6
-25 322 -45 126 -9 192 -10 192 -3 0 17 -105 166 -168 239 -92 106 -255 239
-361 296 -24 12 -24 12 -18 -24z"/>
<path d="M2810 4821 c-161 -106 -293 -238 -406 -407 -30 -45 -54 -83 -54 -85
0 -3 46 -1 103 3 56 4 171 12 256 17 84 6 155 11 156 13 1 2 8 84 14 183 6 99
14 213 18 253 3 42 2 72 -4 72 -5 0 -42 -22 -83 -49z"/>
<path d="M6561 4362 l-1 -353 48 -20 c115 -49 201 -94 261 -135 46 -33 62 -40
59 -27 -3 10 -83 205 -178 433 -95 228 -176 424 -180 435 -5 11 -9 -137 -9
-333z"/>
<path d="M460 4272 c-90 -218 -170 -412 -177 -430 -16 -38 -12 -37 47 9 35 27
145 85 252 132 l57 26 -6 328 c-3 180 -7 329 -7 330 -1 2 -76 -176 -166 -395z"/>
<path d="M3637 4579 c-10 -6 -38 -9 -62 -7 -42 3 -45 1 -124 -75 -74 -73 -79
-80 -69 -103 l11 -24 210 2 211 3 7 26 c6 23 0 33 -45 76 -115 109 -120 112
-139 102z"/>
<path d="M1851 4355 c-17 -41 -31 -77 -31 -80 0 -3 18 -5 40 -5 36 0 42 4 65
41 l26 40 -31 40 c-18 21 -33 39 -34 39 -2 0 -17 -34 -35 -75z"/>
<path d="M5290 4399 c-18 -26 -21 -36 -11 -50 6 -10 11 -30 11 -44 0 -27 27
-39 73 -33 l26 3 -29 69 c-16 38 -33 73 -38 78 -4 4 -19 -6 -32 -23z"/>
<path d="M3380 4329 c-19 -46 -52 -63 -109 -56 l-48 6 -176 -177 -177 -177 0
-301 0 -300 180 -179 c174 -174 181 -180 216 -177 50 4 92 -15 110 -49 l15
-29 204 0 205 0 14 34 c25 60 94 85 142 52 19 -14 30 -5 197 162 l176 177 7
170 c4 94 3 233 -1 310 l-7 140 -176 177 -175 177 -44 -6 c-52 -7 -83 7 -107
48 l-17 29 -208 0 -209 0 -12 -31z"/>
<path d="M2930 4341 l-45 -6 -6 -185 c-4 -102 -6 -186 -5 -187 1 -1 77 73 170
166 163 163 167 168 155 194 -12 27 -12 27 -118 25 -58 0 -126 -4 -151 -7z"/>
<path d="M3999 4326 c-13 -27 -9 -31 160 -199 l173 -172 -6 190 c-4 104 -9
191 -11 193 -2 2 -71 7 -154 10 l-150 5 -12 -27z"/>
<path d="M2675 4330 c-60 -4 -161 -11 -224 -15 l-114 -8 -43 -91 c-59 -127
-70 -168 -52 -194 7 -11 71 -85 140 -165 l127 -145 44 5 c24 3 53 1 63 -5 17
-9 34 5 128 105 125 132 113 92 119 371 l4 152 -41 -2 c-23 -1 -90 -4 -151 -8z"/>
<path d="M4345 4138 l7 -203 41 -45 c150 -162 180 -189 200 -178 11 6 39 8 63
4 37 -5 45 -2 61 18 10 13 73 87 140 164 l122 141 -23 68 c-13 37 -38 98 -57
136 l-33 67 -47 0 c-26 0 -91 4 -145 9 -55 5 -152 12 -218 16 l-118 6 7 -203z"/>
<path d="M1843 4253 c-29 -4 -33 -9 -52 -66 -59 -182 -82 -335 -82 -548 1
-221 28 -412 82 -575 18 -55 23 -62 51 -68 56 -11 72 -7 90 24 11 20 28 33 48
36 16 4 30 8 30 11 0 2 -11 43 -25 91 -40 139 -56 246 -62 413 -7 183 5 300
49 474 19 76 26 121 20 123 -24 8 -64 46 -72 68 -9 24 -13 25 -77 17z"/>
<path d="M5267 4235 c-10 -14 -32 -28 -48 -32 -18 -3 -28 -11 -25 -18 62 -162
102 -441 93 -645 -7 -150 -44 -353 -84 -457 -3 -7 9 -18 29 -26 18 -8 39 -26
47 -40 15 -28 24 -30 83 -21 34 6 39 11 52 53 96 290 112 650 46 971 -16 73
-55 215 -64 227 0 0 -26 4 -56 7 -51 6 -56 5 -73 -19z"/>
<path d="M4951 3979 c-18 -22 -80 -95 -138 -161 -98 -111 -105 -122 -94 -144
14 -32 14 -66 0 -98 -10 -22 -7 -30 30 -73 23 -26 86 -99 139 -161 l97 -112
13 42 c32 108 44 231 38 388 -5 130 -34 341 -49 356 -2 2 -18 -14 -36 -37z"/>
<path d="M2217 4003 c-3 -5 -14 -47 -24 -93 -26 -122 -26 -437 1 -568 10 -51
22 -94 26 -97 4 -3 69 65 144 151 129 148 135 157 121 177 -19 27 -19 76 -1
103 14 19 7 30 -110 165 -152 175 -150 173 -157 162z"/>
<path d="M545 3948 c-139 -60 -261 -143 -301 -204 -15 -22 -15 -25 10 -55 34
-40 34 -87 1 -128 -25 -28 -25 -32 -11 -59 9 -17 44 -51 78 -77 62 -47 239
-138 291 -151 l27 -6 -1 120 c-1 106 -3 122 -18 127 -65 20 -88 117 -39 160
15 13 31 24 36 26 6 2 13 66 17 142 6 113 5 137 -6 136 -8 0 -45 -14 -84 -31z"/>
<path d="M6568 3843 c4 -131 5 -139 28 -158 50 -42 50 -101 1 -153 -20 -21
-22 -37 -25 -143 -3 -98 -1 -119 11 -119 8 0 73 30 145 66 95 47 148 80 189
119 54 52 56 55 40 73 -44 48 -42 108 4 151 22 20 22 22 6 56 -9 19 -42 55
-74 80 -56 45 -252 148 -303 160 l-25 6 3 -138z"/>
<path d="M804 3835 c-110 -118 -116 -127 -101 -143 16 -15 26 -8 152 118 73
73 132 137 129 142 -3 4 -18 8 -34 8 -23 0 -49 -22 -146 -125z"/>
<path d="M873 3798 c-130 -131 -133 -134 -127 -169 l6 -37 129 140 c105 113
129 145 129 169 0 16 -1 29 -3 29 -1 0 -62 -60 -134 -132z"/>
<path d="M2747 3795 l-98 -105 12 -34 c10 -27 10 -40 0 -65 -13 -30 -13 -31
85 -137 l99 -106 3 142 c1 77 1 202 0 275 l-3 134 -98 -104z"/>
<path d="M4351 3625 l0 -280 97 101 97 100 0 78 0 77 -97 102 -97 102 0 -280z"/>
<path d="M6527 3732 c-22 -24 -21 -31 3 -25 11 3 20 14 20 24 0 24 -3 24 -23
1z"/>
<path d="M6318 3504 c-116 -126 -128 -147 -112 -189 5 -13 34 10 130 106 68
67 120 127 117 133 -4 6 -9 26 -12 44 l-6 34 -117 -128z"/>
<path d="M2616 3538 c-10 -6 -38 -8 -62 -5 l-45 5 -126 -147 c-70 -80 -133
-154 -142 -164 -14 -17 -13 -25 8 -85 13 -37 39 -97 57 -133 l33 -66 138 -11
c76 -6 194 -14 263 -18 l126 -6 -4 198 c-3 125 -9 205 -16 215 -6 9 -56 64
-112 121 -85 89 -103 104 -118 96z"/>
<path d="M4464 3434 l-109 -116 -6 -116 c-4 -65 -7 -157 -8 -206 l-1 -89 118
7 c64 3 184 12 265 18 l149 12 28 55 c23 47 80 193 80 206 0 6 -186 222 -245
285 -40 43 -44 45 -88 42 -26 -2 -54 1 -61 7 -11 9 -36 -12 -122 -105z"/>
<path d="M6355 3410 c-71 -71 -113 -120 -106 -124 22 -14 47 5 131 96 116 125
123 135 106 141 -8 3 -61 -43 -131 -113z"/>
<path d="M273 3427 c3 -7 85 -205 182 -442 98 -236 182 -434 188 -440 6 -7 7
17 3 69 -3 43 -6 203 -6 355 l0 276 -104 43 c-57 23 -140 67 -185 97 -46 29
-80 48 -78 42z"/>
<path d="M6897 3415 c-42 -37 -132 -87 -234 -131 l-93 -39 0 -322 c0 -177 4
-324 8 -327 8 -5 358 831 351 838 -2 3 -16 -6 -32 -19z"/>
<path d="M2877 3109 c3 -101 10 -188 15 -194 5 -5 75 -12 156 -13 l148 -4 11
25 c11 23 1 34 -162 197 l-173 172 5 -183z"/>
<path d="M4157 3120 c-150 -151 -167 -171 -161 -194 l6 -26 128 0 c70 0 141 3
158 6 l30 6 7 152 c4 83 5 168 3 188 l-3 38 -168 -170z"/>
<path d="M661 2832 c-1 -318 0 -343 17 -348 56 -19 74 -30 87 -55 19 -36 19
-53 -2 -97 l-17 -35 218 -214 c120 -118 221 -212 223 -209 3 3 -13 32 -34 66
l-40 60 59 262 c32 144 58 270 58 279 0 21 -45 59 -70 59 -36 0 -53 -40 -95
-228 -23 -103 -44 -195 -47 -203 -6 -18 -144 264 -192 393 -67 182 -113 344
-146 518 l-18 95 -1 -343z"/>
<path d="M6518 3031 c-44 -224 -134 -492 -231 -690 l-32 -65 -70 -22 c-38 -13
-143 -46 -233 -74 l-162 -51 27 -47 c14 -26 30 -51 34 -55 4 -5 73 12 154 38
81 25 149 44 152 42 2 -3 -26 -52 -64 -109 -37 -56 -69 -107 -71 -113 -2 -5
102 98 231 230 218 223 234 241 221 260 -36 50 -3 137 56 150 l30 7 -1 206
c-1 114 -4 257 -8 318 l-6 111 -27 -136z"/>
<path d="M1820 2976 c0 -5 60 -149 64 -154 2 -2 16 13 31 32 27 35 27 35 9 75
-10 22 -26 42 -38 45 -24 6 -66 8 -66 2z"/>
<path d="M5313 2973 c-13 -3 -23 -12 -23 -21 0 -10 -7 -27 -14 -38 -13 -19
-12 -24 11 -57 14 -21 29 -37 33 -37 5 0 32 58 67 148 5 12 -26 14 -74 5z"/>
<path d="M2356 2908 c112 -193 320 -406 503 -515 l44 -26 -6 74 c-3 41 -11
157 -18 259 -6 102 -12 186 -13 186 -2 2 -468 34 -494 34 -16 0 -21 -4 -16
-12z"/>
<path d="M4545 2903 c-110 -8 -202 -19 -206 -24 -3 -6 -9 -76 -13 -157 -4 -80
-11 -191 -16 -246 -6 -55 -8 -101 -6 -104 8 -7 118 64 202 132 125 100 229
217 318 359 l37 57 -58 -1 c-32 -1 -148 -8 -258 -16z"/>
<path d="M2060 2880 c-8 -6 -35 -9 -59 -8 -40 2 -47 -1 -75 -35 l-30 -38 28
-57 c105 -214 329 -479 539 -635 94 -71 286 -187 307 -187 8 1 29 12 45 25 26
22 30 31 30 77 0 29 4 60 8 69 6 13 -11 27 -83 68 -254 147 -461 351 -614 606
-36 60 -66 113 -66 117 0 11 -12 10 -30 -2z"/>
<path d="M2894 2764 c9 -168 26 -385 31 -402 5 -15 126 -72 207 -97 l56 -18
34 28 c18 15 92 80 165 143 127 111 131 115 121 143 -7 20 -6 39 2 64 l12 35
-79 74 c-70 67 -80 73 -94 59 -10 -8 -36 -14 -60 -15 -36 0 -48 5 -71 31 -15
17 -28 40 -28 51 0 18 -7 20 -67 20 -38 0 -106 3 -152 7 l-84 6 7 -129z"/>
<path d="M4103 2883 c-77 -3 -103 -7 -103 -17 0 -7 -12 -26 -27 -41 -25 -24
-33 -27 -80 -23 l-52 5 -82 -76 c-78 -72 -81 -78 -70 -100 8 -14 11 -39 7 -62
l-6 -39 146 -127 c196 -171 175 -159 243 -138 31 9 88 33 128 51 84 40 77 21
93 274 5 91 13 195 16 233 l5 67 -58 -2 c-32 -1 -104 -4 -160 -5z"/>
<path d="M5089 2828 c-137 -272 -389 -524 -692 -693 -53 -29 -67 -41 -61 -54
4 -9 9 -36 12 -61 3 -39 10 -49 45 -77 l41 -31 55 31 c303 167 534 380 714
657 47 74 107 181 107 193 0 2 -14 22 -31 43 -27 34 -35 38 -77 39 -26 0 -55
4 -64 9 -14 6 -23 -4 -49 -56z"/>
<path d="M3384 2844 c-6 -22 3 -34 72 -97 44 -41 85 -70 94 -68 27 7 85 5 101
-3 12 -5 38 13 99 71 76 72 82 81 71 101 -12 22 -15 22 -221 22 l-210 0 -6
-26z"/>
<path d="M3390 2398 c-74 -66 -144 -126 -155 -134 -27 -19 -12 -29 74 -48 104
-24 278 -34 401 -25 107 8 259 34 273 48 4 4 -28 37 -70 73 -43 36 -114 98
-157 136 -78 70 -79 71 -107 56 -36 -18 -70 -18 -95 1 -10 8 -21 14 -24 14 -3
0 -66 -55 -140 -121z"/>
<path d="M6246 2083 c-203 -205 -209 -213 -198 -238 19 -41 14 -81 -13 -114
l-26 -30 30 -88 c16 -49 32 -111 36 -138 10 -72 15 -85 26 -58 4 13 88 214
184 449 97 234 175 427 173 427 -2 1 -97 -93 -212 -210z"/>
<path d="M760 2259 c0 -6 126 -314 286 -699 l68 -164 16 79 c9 44 27 111 39
149 l23 68 -22 40 c-21 37 -23 70 -6 108 4 11 -55 76 -199 220 -113 113 -205
202 -205 199z"/>
<path d="M5725 2095 c-31 -30 -31 -47 -1 -81 22 -27 25 -27 65 -16 22 7 41 15
41 19 0 18 -55 103 -67 103 -8 0 -25 -11 -38 -25z"/>
<path d="M3030 2014 c0 -8 -13 -29 -30 -46 -21 -21 -30 -39 -30 -63 0 -69 10
-78 111 -108 341 -98 706 -98 1044 0 50 15 93 29 96 32 4 3 9 27 11 52 5 42 3
46 -22 57 -25 11 -41 33 -53 74 -5 15 -10 15 -67 -3 -165 -51 -255 -63 -480
-63 -231 0 -317 10 -480 59 -98 29 -100 30 -100 9z"/>
<path d="M4324 1959 c-3 -6 -22 -17 -40 -25 -31 -13 -34 -18 -34 -55 0 -46 0
-46 104 0 l58 26 -40 32 c-27 22 -43 29 -48 22z"/>
<path d="M2833 1938 c-18 -13 -31 -27 -30 -32 3 -10 146 -71 152 -64 3 3 2 25
-1 50 -5 36 -11 47 -28 51 -11 3 -30 8 -41 12 -13 3 -32 -3 -52 -17z"/>
<path d="M5703 1523 c-180 -181 -192 -195 -183 -219 6 -14 10 -36 10 -49 0
-22 10 -27 98 -56 69 -22 124 -33 190 -37 l92 -5 0 42 c0 34 6 49 30 73 26 25
37 29 70 26 35 -3 41 -1 51 25 20 48 -3 193 -52 323 -18 49 -23 54 -50 54 -17
0 -38 4 -47 8 -13 7 -58 -33 -209 -185z"/>
<path d="M1290 1700 c-8 -5 -29 -10 -47 -10 -28 0 -33 -5 -47 -42 -33 -89 -56
-195 -56 -254 0 -84 5 -94 47 -94 48 0 93 -45 93 -94 0 -30 4 -37 26 -42 52
-13 178 4 279 38 l100 33 6 49 5 49 -189 186 c-104 102 -192 187 -195 188 -4
2 -14 -2 -22 -7z"/>
<path d="M2002 1513 c-23 -9 -32 -50 -19 -87 l12 -36 53 30 c56 33 65 55 34
83 -18 17 -53 21 -80 10z"/>
<path d="M2055 1404 c-22 -13 -44 -25 -49 -27 -4 -1 13 -68 38 -148 25 -80 46
-149 46 -152 0 -15 -20 -4 -123 63 -59 38 -106 66 -106 62 1 -4 109 -112 239
-240 l237 -232 33 14 c52 22 112 -2 131 -51 l9 -23 342 1 c246 1 330 4 298 11
-25 5 -90 19 -145 30 -134 26 -257 61 -395 110 -143 50 -315 125 -339 147 -10
9 -47 109 -87 239 -38 122 -73 222 -79 221 -5 0 -28 -12 -50 -25z"/>
<path d="M4652 1227 c-12 -13 -22 -32 -22 -43 0 -45 20 -54 224 -99 110 -25
201 -47 203 -49 3 -2 -24 -20 -59 -40 -217 -121 -559 -243 -823 -292 l-100
-19 167 -3 c93 -1 243 -1 334 0 l167 3 3 35 c5 43 52 90 92 90 15 0 41 -9 59
-20 l32 -19 208 210 c114 116 210 215 212 222 2 6 -9 3 -25 -8 -16 -10 -45
-29 -64 -41 l-35 -23 -260 59 c-143 33 -267 60 -276 60 -8 0 -25 -10 -37 -23z"/>
<path d="M1605 1191 c-44 -15 -110 -34 -147 -41 -38 -8 -68 -16 -68 -19 0 -3
82 -39 183 -80 100 -41 298 -122 440 -181 141 -59 257 -104 257 -100 0 5 -95
100 -211 212 l-210 203 -47 -3 c-36 -3 -54 2 -74 17 -32 25 -25 26 -123 -8z"/>
<path d="M5508 1202 c-7 -8 -28 -21 -45 -29 -28 -11 -38 -11 -65 1 l-33 14
-196 -202 c-108 -110 -196 -202 -194 -204 1 -1 182 72 401 164 219 91 410 171
424 176 23 9 18 12 -44 25 -37 8 -106 27 -152 42 -74 25 -85 27 -96 13z"/>
<path d="M3292 1017 c-9 -10 18 -43 117 -141 119 -119 130 -127 151 -116 12 7
36 10 54 7 29 -4 26 1 -49 70 -203 190 -243 216 -273 180z"/>
<path d="M3270 964 c0 -26 16 -45 115 -135 64 -57 120 -105 125 -107 34 -12
-6 39 -115 148 -119 119 -125 123 -125 94z"/>
<path d="M3700 698 c0 -18 18 -34 28 -24 3 4 -2 14 -11 23 -16 16 -17 16 -17
1z"/>
<path d="M4299 663 l-315 -3 -24 -58 c-37 -91 -95 -203 -134 -256 -19 -28 -34
-51 -32 -53 1 -1 119 46 262 105 142 60 339 141 437 181 169 70 209 94 150 89
-16 -2 -170 -4 -344 -5z"/>
<path d="M3250 643 c0 -32 117 -255 165 -316 59 -75 87 -86 127 -52 38 32 75
32 122 0 45 -31 56 -26 120 47 42 47 154 254 171 315 l6 23 -130 -2 c-72 -1
-131 -5 -131 -9 0 -4 -12 -21 -26 -38 -22 -26 -33 -31 -70 -31 -43 0 -82 24
-95 57 -2 6 -58 13 -131 17 -120 7 -128 6 -128 -11z"/>
<path d="M2570 641 c8 -5 148 -64 310 -131 162 -67 347 -144 410 -170 63 -27
116 -47 118 -45 2 2 -14 29 -36 62 -44 64 -99 171 -127 246 l-18 47 -336 0
c-192 0 -330 -4 -321 -9z"/>
</g>
</svg>
